# xmcd
#
# Track frame offsets:
#	150
#	18612
#	35700
#	57950
#	72662
#	92950
#	111275
#	131162
#	151237
#	169062
#	187362
#	204575
#	224787
#	241487
#	262975
#	283512
#	306237
#
# Disc length: 4393 seconds
#
# Revision: 0
# Processed by: cddbd v1.5.2PL0 Copyright (c) Steve Scherf et al.
# Submitted via: audiograbber 1.83.01
#
DISCID=14112711
DTITLE=Lake - Greatest Hits
DYEAR=1990
DGENRE=Rock
TTITLE0=On The Run
TTITLE1=Glad To Be Here
TTITLE2=Red Lake
TTITLE3=Time Bomb
TTITLE4=Love's A Jailer
TTITLE5=Hopeless Love
TTITLE6=Lost By The Wayside
TTITLE7=Angel In Disguise
TTITLE8=Crystal Eyes
TTITLE9=Do I Love You
TTITLE10=Celebrate
TTITLE11=Living For Today
TTITLE12=Jesus Came Down
TTITLE13=Jamaica High
TTITLE14=Key To The Rhyme
TTITLE15=The Sound Of America
TTITLE16=The Final Curtain
EXTD=
EXTT0=
EXTT1=
EXTT2=
EXTT3=
EXTT4=
EXTT5=
EXTT6=
EXTT7=
EXTT8=
EXTT9=
EXTT10=
EXTT11=
EXTT12=
EXTT13=
EXTT14=
EXTT15=
EXTT16=
PLAYORDER=
